<svg width="164" height="40" viewBox="0 0 164 40" fill="none" xmlns="http://www.w3.org/2000/svg">
<path d="M60.2862 36.4842C59.0316 36.4842 57.8886 36.3727 56.8571 36.1497C55.8535 35.9545 54.9613 35.7175 54.1807 35.4388C53.4001 35.16 52.7311 34.9091 52.1735 34.686L53.0935 29.8352C54.1529 30.2533 55.3098 30.6576 56.5644 31.0479C57.8189 31.4382 59.0734 31.6333 60.328 31.6333C61.7498 31.6333 62.837 31.5358 63.5898 31.3406C64.3425 31.1176 64.7188 30.6994 64.7188 30.0861C64.7188 29.5285 64.5098 29.0964 64.0916 28.7897C63.6734 28.4552 63.1158 28.1624 62.4189 27.9115C61.7498 27.6606 61.011 27.4097 60.2025 27.1588C59.3662 26.9079 58.5019 26.6291 57.6098 26.3225C56.7456 25.9879 55.951 25.5697 55.2262 25.0679C54.5014 24.5661 53.902 23.9388 53.428 23.1861C52.982 22.4055 52.7589 21.4437 52.7589 20.3007C52.7589 19.0462 53.0795 17.9031 53.7208 16.8716C54.3898 15.8122 55.4074 14.9759 56.7735 14.3626C58.1674 13.7214 59.9655 13.4008 62.168 13.4008C63.5898 13.4008 64.914 13.5123 66.1406 13.7353C67.3952 13.9583 68.4824 14.265 69.4024 14.6553L68.4824 19.548C68.1479 19.4365 67.66 19.2831 67.0188 19.088C66.3776 18.865 65.6388 18.6698 64.8025 18.5025C63.994 18.3353 63.1298 18.2516 62.2098 18.2516C60.7601 18.2516 59.7704 18.4328 59.2407 18.7953C58.7389 19.1298 58.488 19.5062 58.488 19.9243C58.488 20.3704 58.6831 20.7607 59.0734 21.0952C59.4637 21.4298 59.9795 21.7225 60.6207 21.9734C61.2898 22.2243 62.0146 22.4892 62.7952 22.7679C63.6316 23.0467 64.4958 23.3673 65.3879 23.7298C66.28 24.0643 67.1025 24.4964 67.8552 25.0261C68.6079 25.5279 69.2073 26.1691 69.6533 26.9497C70.1273 27.7303 70.3643 28.7061 70.3643 29.877C70.3643 31.1036 70.0436 32.2188 69.4024 33.2224C68.7612 34.226 67.7018 35.0206 66.2243 35.606C64.7746 36.1915 62.7952 36.4842 60.2862 36.4842Z" fill="white"/>
<path d="M84.8152 36.6097C82.7522 36.6097 80.9401 36.1218 79.3789 35.146C77.8177 34.1424 76.5911 32.7624 75.699 31.0061C74.8347 29.2497 74.4026 27.2285 74.4026 24.9425C74.4026 22.6286 74.8487 20.6074 75.7408 18.8789C76.6608 17.1504 77.9014 15.8123 79.4626 14.8644C81.0238 13.8886 82.808 13.4008 84.8152 13.4008C86.8783 13.4008 88.6764 13.8886 90.2097 14.8644C91.7709 15.8123 92.9837 17.1504 93.8479 18.8789C94.74 20.6074 95.1861 22.6286 95.1861 24.9425C95.1861 27.2285 94.754 29.2497 93.8897 31.0061C93.0255 32.7624 91.8128 34.1424 90.2516 35.146C88.7182 36.1218 86.9061 36.6097 84.8152 36.6097ZM84.7316 31.5915C85.7352 31.5915 86.5716 31.3127 87.2407 30.7552C87.9376 30.1976 88.4534 29.4309 88.7879 28.4552C89.1225 27.4515 89.2898 26.2946 89.2898 24.9843C89.2898 23.674 89.1225 22.531 88.7879 21.5552C88.4813 20.5516 87.9934 19.7849 87.3243 19.2553C86.6831 18.6977 85.8468 18.4189 84.8152 18.4189C83.8395 18.4189 83.0031 18.6977 82.3062 19.2553C81.6371 19.7849 81.1213 20.5516 80.7589 21.5552C80.4244 22.531 80.2571 23.674 80.2571 24.9843C80.2571 26.2946 80.4104 27.4515 80.7171 28.4552C81.0516 29.4309 81.5395 30.1976 82.1807 30.7552C82.8498 31.3127 83.7001 31.5915 84.7316 31.5915Z" fill="white"/>
<path d="M99.4335 35.9824V14.6553C100.465 14.3765 101.734 14.1117 103.239 13.8608C104.772 13.6098 106.417 13.4844 108.173 13.4844C110.515 13.4844 112.327 13.9165 113.61 14.7807C114.92 15.6171 115.826 16.788 116.328 18.2934C116.858 19.7989 117.122 21.5552 117.122 23.5625V35.9824H111.352V24.3152C111.352 22.9492 111.254 21.848 111.059 21.0116C110.864 20.1474 110.501 19.5201 109.972 19.1298C109.47 18.7116 108.745 18.5025 107.797 18.5025C107.379 18.5025 106.947 18.5304 106.501 18.5862C106.083 18.614 105.636 18.6559 105.163 18.7116V35.9824H99.4335Z" fill="white"/>
<path d="M131.615 36.4842C129.357 36.4842 127.447 36.0242 125.886 35.1042C124.325 34.1842 123.14 32.8739 122.332 31.1733C121.551 29.4727 121.161 27.4515 121.161 25.1097C121.161 22.7122 121.495 20.6492 122.164 18.9207C122.834 17.1922 123.823 15.8541 125.134 14.9062C126.444 13.9583 128.061 13.4844 129.984 13.4844C130.765 13.4844 131.532 13.582 132.284 13.7771C133.037 13.9444 133.692 14.1814 134.25 14.488V4.45174L140.021 3.48993V35.3133C139.324 35.5363 138.501 35.7454 137.553 35.9406C136.606 36.1078 135.616 36.2333 134.584 36.3169C133.581 36.4284 132.591 36.4842 131.615 36.4842ZM131.657 31.5497C132.131 31.5497 132.577 31.5358 132.995 31.5079C133.413 31.4521 133.832 31.3964 134.25 31.3406V19.3389C133.832 19.088 133.33 18.8789 132.744 18.7116C132.187 18.5443 131.587 18.4607 130.946 18.4607C130.054 18.4607 129.315 18.7116 128.73 19.2134C128.144 19.7152 127.712 20.4401 127.434 21.388C127.155 22.308 127.015 23.451 127.015 24.817C127.015 26.7964 127.378 28.4134 128.103 29.6679C128.855 30.9224 130.04 31.5497 131.657 31.5497Z" fill="white"/>
<path d="M154.597 36.4842C153.203 36.4842 151.935 36.3587 150.792 36.1078C149.649 35.8569 148.659 35.4527 147.823 34.8951C147.014 34.3375 146.387 33.5988 145.941 32.6788C145.523 31.7309 145.314 30.5879 145.314 29.2497C145.314 27.5212 145.746 26.1691 146.61 25.1934C147.474 24.1898 148.603 23.4789 149.997 23.0607C151.391 22.6146 152.869 22.3916 154.43 22.3916C155.21 22.3916 155.935 22.4334 156.604 22.517C157.273 22.5728 157.873 22.6564 158.403 22.7679V22.057C158.403 21.3322 158.249 20.691 157.943 20.1334C157.636 19.548 157.148 19.088 156.479 18.7534C155.81 18.4189 154.918 18.2516 153.803 18.2516C152.715 18.2516 151.67 18.3353 150.666 18.5025C149.663 18.6419 148.84 18.8231 148.199 19.0462L147.404 14.4044C148.101 14.1535 149.105 13.9304 150.415 13.7353C151.754 13.5123 153.12 13.4008 154.513 13.4008C156.911 13.4008 158.793 13.7632 160.159 14.488C161.525 15.2129 162.487 16.2444 163.044 17.5825C163.63 18.9207 163.922 20.5098 163.922 22.3498V35.4806C163.086 35.6757 161.832 35.8848 160.159 36.1078C158.514 36.3587 156.66 36.4842 154.597 36.4842ZM155.015 31.8424C155.629 31.8424 156.228 31.8285 156.813 31.8006C157.427 31.7727 157.956 31.7448 158.403 31.717V26.657C158.04 26.6013 157.594 26.5594 157.064 26.5316C156.535 26.4758 156.047 26.4479 155.601 26.4479C154.792 26.4479 154.04 26.5176 153.343 26.657C152.646 26.7964 152.074 27.0612 151.628 27.4515C151.21 27.814 151.001 28.3576 151.001 29.0824C151.001 30.0582 151.363 30.7691 152.088 31.2152C152.841 31.6333 153.817 31.8424 155.015 31.8424Z" fill="white"/>
<path d="M2.74289 24.0133C6.40007 20.3561 12.3295 20.3561 15.9867 24.0133C19.6439 27.6705 19.6439 33.5999 15.9867 37.2571C12.3295 40.9143 6.40007 40.9143 2.74289 37.2571C-0.914296 33.5999 -0.914296 27.6705 2.74289 24.0133Z" fill="#7100D9"/>
<path d="M24.0133 2.74289C27.6705 -0.914296 33.5999 -0.914296 37.2571 2.74289C40.9143 6.40007 40.9143 12.3295 37.2571 15.9867C33.5999 19.6439 27.6705 19.6439 24.0133 15.9867C20.3561 12.3295 20.3561 6.40007 24.0133 2.74289Z" fill="#7100D9"/>
<path d="M22.2073 17.7927C24.6297 20.215 27.8353 21.3767 31.0089 21.2778C33.2795 21.3679 35.5236 22.2797 37.2571 24.0133C40.9143 27.6705 40.9143 33.5999 37.2571 37.2571C33.5999 40.9143 27.6705 40.9143 24.0133 37.2571C22.2798 35.5236 21.368 33.2796 21.2778 31.009C21.3768 27.8354 20.2151 24.6297 17.7927 22.2073C15.3703 19.7849 12.1645 18.6232 8.99082 18.7222C6.7203 18.632 4.47635 17.7202 2.74289 15.9867C-0.914292 12.3295 -0.914296 6.40008 2.74289 2.74289C6.40007 -0.91429 12.3295 -0.914287 15.9867 2.74289C17.7202 4.47641 18.6321 6.72045 18.7222 8.99104C18.6232 12.1647 19.7849 15.3703 22.2073 17.7927Z" fill="#7100D9"/>
</svg>
